Coordinates

Units are S.I. units (second, meters, Newtons, ...)
If the header above contains a line with 'inDegrees', this indicates whether rotational values are in degrees (yes) or radians (no).

inDegrees=no
nColumns=21
nRows=25
DataType=double
version=3
OpenSimVersion=4.6-2026-03-31-d6972f9e6
endheader
time	/jointset/ground_pelvis/pelvis_tilt/value	/jointset/ground_pelvis/pelvis_list/value	/jointset/ground_pelvis/pelvis_rotation/value	/jointset/ground_pelvis/pelvis_tx/value	/jointset/ground_pelvis/pelvis_ty/value	/jointset/ground_pelvis/pelvis_tz/value	/jointset/hip_r/hip_flexion_r/value	/jointset/hip_r/hip_adduction_r/value	/jointset/hip_r/hip_rotation_r/value	/jointset/walker_knee_r/knee_angle_r/value	/jointset/patellofemoral_r/knee_angle_r_beta/value	/jointset/ankle_r/ankle_angle_r/value	/jointset/subtalar_r/subtalar_angle_r/value	/jointset/hip_l/hip_flexion_l/value	/jointset/hip_l/hip_adduction_l/value	/jointset/hip_l/hip_rotation_l/value	/jointset/walker_knee_l/knee_angle_l/value	/jointset/patellofemoral_l/knee_angle_l_beta/value	/jointset/ankle_l/ankle_angle_l/value	/jointset/subtalar_l/subtalar_angle_l/value
142.496	0.03617506663334385	-0.09795403087833902	-0.0620636274382385	1.034340154598593	1.021264107980245	-0.3020677269450708	0.2956149365744855	0.1670176036047798	0.05100073294928534	0.4768836272889987	0.4768836272281734	-0.07170043425298245	-0.342960470896731	-0.05666142017361608	-0.1105639576811779	0.05915629011050198	1.209629952175835	1.209629952531988	-0.6086757402639047	-0.5244048856080351
142.5	0.03739259894186998	-0.104108686182992	-0.06584009480700166	1.033681935984061	1.018168306395239	-0.3019964217149451	0.2914104891673585	0.1764326239462969	0.05159670419589448	0.4992161897044347	0.4992161895826034	-0.04707233487114589	-0.35379312948889	-0.03480688586109142	-0.1198109314090454	0.05814382379637964	1.246495803484976	1.246495803768864	-0.6023583512040299	-0.5293621133761176
142.504	0.03832341910248436	-0.1100883894138926	-0.06962110493858784	1.032958050204832	1.01515462214592	-0.3019535144295332	0.2868977436732117	0.1854090637670402	0.05246943540757493	0.5207001214348256	0.5207001212310016	-0.02237650574213434	-0.3634830867997246	-0.01228382843229071	-0.1289033382312137	0.05764253682601961	1.2822491602226	1.282249160440601	-0.5951295166791976	-0.5341112810863456
142.508	0.03900715444604369	-0.1158122790332475	-0.07338905068284472	1.032177237524388	1.012259415733757	-0.3019397334120532	0.2819300195341397	0.193829503461615	0.05369491437197409	0.5410596666237503	0.5410596663215428	0.002154195994345839	-0.3718652948632096	0.01081692455996157	-0.1376974367949877	0.05768697650768073	1.316728421868724	1.316728422031052	-0.5870452564007659	-0.5386658919831121
142.512	0.03948887361727717	-0.1212018179171241	-0.07712425494567529	1.031349472180461	1.009518228171305	-0.3019553304937161	0.2763565707008511	0.201582059701792	0.05534568758540048	0.5600337588798509	0.5600337584675812	0.02629280208459629	-0.3788201723076227	0.03439389208042784	-0.1460544016436784	0.05829055856112337	1.349773483016325	1.349773483137361	-0.5781888578746998	-0.5430257095107792
142.516	0.03981765864034253	-0.1261819225775051	-0.0808053858966102	1.030485774145339	1.006964864362945	-0.3019999887434985	0.270025995912292	0.2085621784394194	0.05748705295411552	0.5773783066022808	0.5773783060726702	0.04982130336033693	-0.3842755178085729	0.05833627859653926	-0.1538433672969735	0.05944563396828292	1.381228335543695	1.381228335642023	-0.5686671750119062	-0.5471793479959642
142.52	0.04004495599171978	-0.1306820777966227	-0.08440993645049516	1.029597981504565	1.00463051128005	-0.3020727486905345	0.2627900755257437	0.2146743443383383	0.06017353980433876	0.5928685635462253	0.5928685628956861	0.07253294522728801	-0.3882069181469499	0.08252579628392183	-0.160944291993414	0.06112427519363382	1.410943847902917	1.410943848000733	-0.5586059989663934	-0.551107149599274
142.524	0.04022282279888366	-0.1346373945929469	-0.08791472994690459	1.028698493586049	1.002542934811154	-0.3021719622797868	0.2545078304438063	0.2198336477229478	0.06344584547714621	0.6063015527501111	0.6063015519779064	0.09423372106981991	-0.3906366684617339	0.1068388391443998	-0.1672505039067028	0.06327975109605669	1.438780547195122	1.438780547316982	-0.5481448207184452	-0.5547842185409469
142.528	0.04040213565207117	-0.1379896012558033	-0.09129643206556443	1.027799994772899	1.000725788772337	-0.3022952803148995	0.2450496592350613	0.2239671931581672	0.0673283545835484	0.6174985249865519	0.6174985240941088	0.114743087018241	-0.391631229269816	0.1311489322012229	-0.1726708645325699	0.06584860847483925	1.464611261999021	1.464611262170201	-0.5374312964607018	-0.5581834959110961
142.532	0.04063071849063633	-0.140687968877148	-0.09453206246069835	1.026915167338659	0.9991980519222102	-0.3024396764995901	0.2343015576898054	0.2270153523380313	0.07182731055755216	0.626307469305124	0.6263074682956054	0.1338940049008679	-0.3912972157063236	0.1553295239414034	-0.1771315284103633	0.06875326704909421	1.488323557088987	1.488323557333713	-0.5266156531878594	-0.561278694601173
142.536	0.04095139899574437	-0.1426901376877272	-0.09759948815765049	1.026056402932461	0.9979736090991419	-0.3026015107252302	0.2221693436143046	0.2289328226285492	0.07692969333406145	0.632605634540311	0.632605633418446	0.1515324446457754	-0.3897760201788847	0.1792571040298418	-0.1805772246213698	0.07190503150572486	1.50982187402054	1.509821874360199	-0.5158452849806477	-0.5640469384859983
142.54	0.04140013281052862	-0.143962779437375	-0.1004778710363391	1.025235525685202	0.9970610009751225	-0.3027766333419509	0.2085826135314724	0.2296894133134841	0.08260285543569675	0.6363019073852881	0.6363019061574895	0.1675164773199934	-0.3872373274685325	0.2028144262758496	-0.182971932376037	0.07520740676289506	1.529029227816348	1.52902922826778	-0.5052598489725875	-0.5664710376825522
142.544	0.04200425733109395	-0.1444820620504126	-0.1031480675973343	1.024463539468768	0.9964633510508287	-0.3029605278540284	0.1934982592490424	0.2292705154141476	0.08879490022641179	0.6373389040589355	0.637338902733758	0.1817151809662448	-0.3838717234517609	0.2258937034892674	-0.1842989064747075	0.07855959042425507	1.545888364596425	1.545888365170485	-0.4949870672277708	-0.5685412874495719
142.548	0.04278081104437512	-0.1442339138394556	-0.1055930027043326	1.023750407722182	0.996178455726404	-0.3031484845277064	0.1769035669869695	0.227677246799812	0.09543570807031826	0.6356947092149038	0.6356947078038093	0.1940076479472185	-0.3798825076878711	0.2483998103954661	-0.1845601112009001	0.08186000564487425	1.560362382442528	1.560362383143089	-0.485139285620078	-0.5702566098178617
142.552	0.04373498678302799	-0.1432140656197002	-0.107798022907668	1.023104871934062	0.9961990290541147	-0.3033357956127321	0.1588187657893503	0.224926242777374	0.1024385351685502	0.6313841474212013	0.6313841459394295	0.204282251735347	-0.3754770159150236	0.2702533529070162	-0.1837751062853856	0.08500970558113187	1.57243478676525	1.572434787588793	-0.4758108838048788	-0.5716250009993099
142.556	0.04485897813138649	-0.1414278540100528	-0.1097512158319952	1.022534315019362	0.9965131072287086	-0.3035179627458224	0.1392986406134249	0.2210490630305649	0.1097021517830831	0.624459380069567	0.6244593785368334	0.2124361796867824	-0.3708579473376354	0.2913931983481203	-0.1819794191632055	0.08791546339005106	1.582108888818644	1.58210888975453	-0.4670767061762021	-0.5726634192448812
142.56	0.04613144548164682	-0.1388898242113498	-0.1114436826795395	1.022044675403583	0.9971046074149463	-0.3036909057939446	0.1184328751519053	0.2160912389697654	0.1171134463487736	0.6150096410807502	0.6150096395215349	0.2183753060960822	-0.3662150276331883	0.3117781044625209	-0.1792225197121833	0.09049240981411141	1.589406509763714	1.58940651079512	-0.4589915269976889	-0.5733971793476733
142.564	0.04751770099798548	-0.1356231985565278	-0.1128697496892342	1.02164041583011	0.9979540162315111	-0.3038511604210685	0.09634497361645512	0.2101110156324655	0.1245503601629794	0.6031599981867889	0.6031599966300121	0.2220146161760453	-0.361717112652775	0.3313872649774599	-0.1755655692793776	0.09266615469099299	1.594366046758105	1.594366047863379	-0.4515903350170292	-0.5738587865032849
142.568	0.04897064855086242	-0.1316592455468498	-0.1140271044727752	1.021324547381517	0.9990391749930719	-0.3039960507388675	0.07318972043692493	0.2031778253233488	0.1318850205772901	0.5890690821416352	0.5890690806195811	0.2232793209066139	-0.3575049181882027	0.3502196866114172	-0.1710790774959114	0.09437436158798773	1.597039994584376	1.597039995738508	-0.444889202718511	-0.5740862087193369
142.572	0.05043246465771076	-0.1270365399445878	-0.1149168583994554	1.021098704019701	1.000336126056802	-0.304123823836957	0.04914923888597707	0.1953705143280525	0.1389869869518127	0.5729257930356201	0.57292579158218	0.2221065612090268	-0.3536848325145591	0.3682923952202033	-0.1658405371120206	0.09556774623865549	1.597492027474371	1.597492028650251	-0.4388866535881122	-0.5741207775425866
142.576	0.05183694745192228	-0.1218000987336357	-0.1155435477406101	1.020963259001475	1.001819981978533	-0.3042337350396683	0.02442781194866566	0.1867753597379701	0.1457265471203142	0.5549450574883761	0.5549450561368678	0.2184474320983485	-0.3503243885150645	0.3856375675098123	-0.1599320892403461	0.09621049056741239	1.595793766819139	1.595793767988451	-0.4335655331990937	-0.574004990624432
142.58	0.05311243410882721	-0.1160004099541251	-0.1159150750023022	1.020917473578359	1.003465779598011	-0.3043260768671665	-0.0007543325468813922	0.1774839470133199	0.1519779916438049	0.5353627437508803	0.5353627425317069	0.2122690592495141	-0.3474498320540632	0.4022987383242744	-0.1534382928662653	0.09628011568505278	1.592021377618045	1.59202137875187	-0.428895337695517	-0.5737804163257193
142.584	0.05418515895118368	-0.1096924007234013	-0.1160425827919885	1.020959668202844	1.005249282268162	-0.3044021491465003	-0.02616802776599991	0.1675910048847354	0.1576227857331304	0.5144298896329422	0.5144298885712746	0.2035565312933524	-0.3450459909826902	0.418326282061729	-0.1464440905526073	0.09576690168167562	1.586252148188972	1.586252149258454	-0.4248348496845622	-0.5734857991539072
142.588	0.05498281544371766	-0.102934390089515	-0.1159402808841958	1.021087404356506	1.007147688284045	-0.304464170632999	-0.05158254317971301	0.1571922986245473	0.162552548328639	0.4924065296196384	0.4924065287333197	0.1923145651832719	-0.3430584276653417	0.4337725186244745	-0.139033058948751	0.0946729501590588	1.578561239062928	1.578561240040389	-0.4213348724396935	-0.5731554115942463
142.592	0.05543795024262343	-0.09578704746405517	-0.1156252807959993	1.021297662552924	1.009140197560188	-0.3045151358908342	-0.07677268387958418	0.1463826580068489	0.1666717004586229	0.4695555660567033	0.4695555653546565	0.1785688775506343	-0.3413976160991893	0.4486869825034073	-0.1312859983015645	0.09301098140803916	1.569018821170229	1.56901882203078	-0.4183408530390595	-0.5728176630172349
